<?xml version="1.0" encoding="UTF-8" standalone="no"?>
<!-- Created with Inkscape (http://www.inkscape.org/) -->

<svg
   width="2540"
   height="1440"
   viewBox="0 0 672.04165 381"
   version="1.1"
   id="svg5"
   xml:space="preserve"
   xmlns="http://www.w3.org/2000/svg"
   xmlns:svg="http://www.w3.org/2000/svg"><defs
     id="defs2" /><g
     id="layer1"><rect
       style="fill:@background@;fill-opacity:1;stroke-width:0.264583"
       id="rect112"
       width="714.71729"
       height="450.93839"
       x="-28.702499"
       y="-27.577734"
       ry="0.36322838" /><path
       style="fill:@foreground@;fill-opacity:1;stroke:#1ce6ff;stroke-width:0;stroke-linecap:round;stroke-linejoin:round"
       d="m 295.62488,179.9046 c 10.39306,-7.29113 33.52411,-2.78842 40.79588,2.45554 l 0.46457,-2.32284 -12.81431,-10.49147 0.271,0.11615 13.0853,9.91076 0.77427,-0.23228 4.76183,-15.36942 0.0774,0.11614 -4.21982,15.60171 2.09055,2.12926 c 6.03046,-14.4834 28.85805,-21.5022 33.44884,-20.59581 1.67211,0.33014 2.56511,1.84961 2.70997,4.33596 -0.29486,7.83486 -6.9634,21.02138 -9.41022,22.71454 -1.28358,0.88822 -8.01104,-0.41532 -8.01104,-0.41532 6.08807,3.31804 6.93932,8.44271 6.81365,11.61418 -0.12568,3.17147 -5.83162,14.1849 -8.20736,15.021 -2.37574,0.8361 -6.18721,0.3866 -8.20736,-0.46457 -2.02015,-0.85116 -3.6391,-3.32939 -3.6391,-3.32939 0,0 0.21419,2.79316 -1.47112,4.72309 -1.68531,1.92994 -7.17959,4.69769 -9.4462,4.41339 -2.26661,-0.28429 -14.07732,-7.21466 -15.09843,-14.24672 -0.21825,-1.50305 2.2454,-7.74279 2.2454,-7.74279 0,0 -5.83715,2.9265 -7.51051,2.70998 -4.3671,-0.56507 -19.61818,-13.94908 -19.61818,-13.94908 -1.42077,-1.33488 -1.54691,-5.53612 0.11523,-6.70201 z"
       id="path8984" /></g></svg>
