<?xml version="1.0" encoding="UTF-8" standalone="no"?>
<!-- Created with Inkscape (http://www.inkscape.org/) -->

<svg
   width="2048"
   height="1080"
   viewBox="0 0 541.86667 285.75"
   version="1.1"
   id="svg1"
   inkscape:version="1.4 (e7c3feb100, 2024-10-09)"
   sodipodi:docname="drawing.svg"
   inkscape:export-filename="modules/lock.svg"
   inkscape:export-xdpi="96"
   inkscape:export-ydpi="96"
   xmlns:inkscape="http://www.inkscape.org/namespaces/inkscape"
   xmlns:sodipodi="http://sodipodi.sourceforge.net/DTD/sodipodi-0.dtd"
   xmlns="http://www.w3.org/2000/svg"
   xmlns:svg="http://www.w3.org/2000/svg">
  <sodipodi:namedview
     id="namedview1"
     pagecolor="#ffffff"
     bordercolor="#000000"
     borderopacity="0.25"
     inkscape:showpageshadow="2"
     inkscape:pageopacity="0.0"
     inkscape:pagecheckerboard="0"
     inkscape:deskcolor="#d1d1d1"
     inkscape:document-units="mm"
     inkscape:zoom="1"
     inkscape:cx="395.5"
     inkscape:cy="676.5"
     inkscape:window-width="2540"
     inkscape:window-height="1380"
     inkscape:window-x="0"
     inkscape:window-y="0"
     inkscape:window-maximized="0"
     inkscape:current-layer="layer1" />
  <defs
     id="defs1" />
  <g
     inkscape:label="Layer 1"
     inkscape:groupmode="layer"
     id="layer1">
    <rect
       style="fill:#000000;stroke-width:0.264583"
       id="rect1"
       width="578.73004"
       height="343.06427"
       x="-21.886889"
       y="-20.868896" />
    <text
       xml:space="preserve"
       style="font-size:3.175px;text-align:start;writing-mode:lr-tb;direction:ltr;text-anchor:start;fill:#000000;stroke-width:0.264583"
       x="211.23392"
       y="142.51929"
       id="text1"><tspan
         sodipodi:role="line"
         id="tspan1"
         style="stroke-width:0.264583"
         x="211.23392"
         y="142.51929" /></text>
    <path
       style="font-size:123.472px;fill:#ff6600;stroke-width:0.264583"
       d="m 270.93333,171.30521 q 4.36901,0 7.345,-2.97599 3.03931,-3.03931 3.03931,-7.345 0,-4.36901 -3.03931,-7.345 -2.97599,-3.03931 -7.345,-3.03931 -4.36901,0 -7.40832,3.03931 -2.97599,2.97599 -2.97599,7.345 0,4.30569 2.97599,7.345 3.03931,2.97599 7.40832,2.97599 z m 30.83634,-46.28617 q 4.36901,0 7.345,3.03931 3.03931,2.976 3.03931,7.09173 v 51.60496 q 0,4.11574 -3.03931,7.15505 -3.03931,2.97599 -7.345,2.97599 h -61.67268 q -4.36901,0 -7.40832,-3.03931 -2.97599,-2.97599 -2.97599,-7.09173 v -51.60496 q 0,-4.11573 3.03931,-7.09173 3.03931,-3.03931 7.345,-3.03931 h 5.0022 v -10.38431 q 0,-6.96509 3.48254,-12.85375 3.54586,-5.951984 9.43453,-9.434527 5.95198,-3.482544 12.91707,-3.482544 6.96509,0 12.85375,3.482544 5.95198,3.482543 9.43453,9.434527 3.54586,5.88866 3.54586,12.85375 v 10.38431 z M 270.93333,99.248221 q -6.52186,0 -11.0175,4.432329 -4.43233,4.43233 -4.43233,10.95418 v 10.38431 h 30.89966 v -10.38431 q 0,-6.52185 -4.49565,-10.95418 -4.43233,-4.432329 -10.95418,-4.432329 z"
       id="text2"
       aria-label="󰌾" />
  </g>
</svg>
